<?xml version="1.0" standalone="no"?><!DOCTYPE svg PUBLIC "-//W3C//DTD SVG 1.1//EN" "http://www.w3.org/Graphics/SVG/1.1/DTD/svg11.dtd"><svg viewBox="0 0 168 280" style="background-color:#ffffff00" version="1.1"	xmlns="http://www.w3.org/2000/svg" xmlns:xlink="http://www.w3.org/1999/xlink" xml:space="preserve"	x="0" y="0" width="168px" height="280px">	<g id="calendar">		<path d="M 148 270 L 150 270 L 150 271 L 151 271 L 151 270 L 156 270 L 156 271 L 157 271 L 157 270 L 159 270 L 159 278 L 148 278 L 148 270 ZM 147 267 L 147 279 L 160 279 L 160 267 L 157 267 L 157 266 L 156 266 L 156 267 L 151 267 L 151 266 L 150 266 L 150 267 L 147 267 ZM 157 276 L 157 277 L 158 277 L 158 276 L 157 276 ZM 155 276 L 155 277 L 156 277 L 156 276 L 155 276 ZM 153 276 L 153 277 L 154 277 L 154 276 L 153 276 ZM 151 276 L 151 277 L 152 277 L 152 276 L 151 276 ZM 149 276 L 149 277 L 150 277 L 150 276 L 149 276 ZM 157 274 L 157 275 L 158 275 L 158 274 L 157 274 ZM 157 272 L 157 273 L 158 273 L 158 272 L 157 272 ZM 155 274 L 155 275 L 156 275 L 156 274 L 155 274 ZM 155 272 L 155 273 L 156 273 L 156 272 L 155 272 ZM 153 274 L 153 275 L 154 275 L 154 274 L 153 274 ZM 151 274 L 151 275 L 152 275 L 152 274 L 151 274 ZM 149 274 L 149 275 L 150 275 L 150 274 L 149 274 ZM 153 272 L 153 273 L 154 273 L 154 272 L 153 272 ZM 151 272 L 151 273 L 152 273 L 152 272 L 151 272 ZM 149 272 L 149 273 L 150 273 L 150 272 L 149 272 Z" fill="#a1a3a4"/>	</g>	<g id="alert">		<path d="M 67 250.9844 C 67 248 68.0313 247.9844 68.5 245.9531 C 68.8281 244.5469 69 242.5313 69 241.8906 C 69 241.1094 68.8906 240.2813 68.5156 239.8438 C 68.0938 239.3281 67.5313 239 66.5156 239 C 65.5 239 65.0156 239.25 64.5938 239.7656 C 64.2188 240.2031 64 241.1094 64 241.8906 C 64 242.5313 64.1719 244.5469 64.5 245.9531 C 64.9688 247.9844 66 248 66 250.9844 L 66.5156 250.9844 L 66.9688 250.9844 L 67 250.9844 ZM 64 254.5 C 64 255.8807 65.1193 257 66.5 257 C 67.8807 257 69 255.8807 69 254.5 C 69 253.1193 67.8807 252 66.5 252 C 65.1193 252 64 253.1193 64 254.5 Z" fill="#ed1847"/>	</g>	<g id="tick">		<path d="M 29 250.5 L 31 248.5 L 34 251.5 L 44 241.5 L 46 243.5 L 34 255.5 L 29 250.5 Z" fill="#a2b62d"/>	</g>	<g id="info">		<path d="M 8 241.5 C 8 242.8807 9.1193 244 10.5 244 C 11.8807 244 13 242.8807 13 241.5 C 13 240.1193 11.8807 239 10.5 239 C 9.1193 239 8 240.1193 8 241.5 ZM 6 256 L 6 257 L 15 257 L 15 256 L 13 256 L 13 245.6563 C 12.3438 245.7813 11.8125 245.8594 11.375 245.8906 C 10.625 245.9688 9.4531 246 7.8594 246 L 6 246 L 6 247 L 8 247 L 8 256 L 6 256 Z" fill="#561066"/>	</g>	<g id="next">		<path d="M 118 223 L 118 213 L 124 218 L 118 223 ZM 112 218 C 112 222.4183 115.5817 226 120 226 C 124.4183 226 128 222.4183 128 218 C 128 213.5817 124.4183 210 120 210 C 115.5817 210 112 213.5817 112 218 Z" fill="#c1c3c4"/>	</g>	<g id="prev">		<path d="M 94 223 L 94 213 L 88 218 L 94 223 ZM 100 218 C 100 222.4183 96.4183 226 92 226 C 87.5817 226 84 222.4183 84 218 C 84 213.5817 87.5817 210 92 210 C 96.4183 210 100 213.5817 100 218 Z" fill="#c1c3c4"/>	</g>	<g id="chevron-small">		<path d="M 63 214.5156 L 60 219 L 61 219 L 65 214.5156 L 61 210 L 60 210 L 63 214.5156 L 63 214.5156 ZM 59 214.5156 L 56 219 L 57 219 L 61 214.5156 L 57 210 L 56 210 L 59 214.5156 L 59 214.5156 Z" fill="#b1b3b4"/>	</g>	<g id="arrow-right">		<path d="M 31 222 L 37 216 L 31 210 L 31 222 Z" fill="#c1c3c4"/>	</g>	<g id="arrow-down">		<path d="M 0 213 L 6 219 L 12 213 L 0 213 Z" fill="#c1c3c4"/>	</g>	<g id="form">		<path d="M 29 183 L 33 183 L 33 186.9844 L 37 186.9844 L 37 194 L 29 194 L 29 183 ZM 37 186 L 34 186 L 34 183 L 37 186 ZM 28 182 L 28 195 L 38 195 L 38 186 L 34 182 L 28 182 ZM 30 192 L 30 193 L 36 193 L 36 192 L 30 192 ZM 30 190 L 30 191 L 36 191 L 36 190 L 30 190 ZM 30 188 L 30 189 L 36 189 L 36 188 L 30 188 ZM 30 186 L 30 187 L 32 187 L 32 186 L 30 186 ZM 30 184 L 30 185 L 32 185 L 32 184 L 30 184 Z" fill="#b1b3b4"/>	</g>	<g id="document">		<path d="M 1 183 L 5 183 L 5 186.9844 L 9 186.9844 L 9 194 L 1 194 L 1 183 ZM 9 186 L 6 186 L 6 183 L 9 186 ZM 0 182 L 0 195 L 10 195 L 10 186 L 6 182 L 0 182 Z" fill="#b1b3b4"/>	</g>	<g id="linkedin">		<rect id="Path" x="126" y="140" width="32" height="32" fill="#c1c3c4" rx="5.28" ry="5.28"/>		<path id="Path2" d="M 133 148 C 133 146.8954 133.8954 146 135 146 C 136.1046 146 137 146.8954 137 148 C 137 149.1045 136.1046 150 135 150 C 133.8954 150 133 149.1045 133 148 ZM 143 165 L 143 157.8125 C 143 157.4294 143.1019 156.9929 143.2188 156.7188 C 143.538 155.9534 144.1118 155.2429 145.3324 155.2429 C 146.9318 155.2429 148 156.2773 148 158 L 148 165 L 151.9897 165 L 151.9897 157.6493 C 152.1458 153.9294 150.5326 152 147.625 152 C 145.241 152 143.5813 153.1255 143 154 L 143 154 L 143 152 L 139 152 L 139 165 L 143 165 ZM 137 165 L 137 152 L 133 152 L 133 165 L 137 165 Z" fill="#ffffff"/>	</g>	<g id="youtube">		<rect id="Path3" x="84" y="140" width="32" height="32" fill="#c1c3c4" rx="5.28" ry="5.28"/>		<path id="Path4" d="M 93 147 L 93 166 L 109 156.5 L 93 147 Z" fill="#ffffff"/>	</g>	<g id="twitter">		<rect id="Path5" x="42" y="140" width="32" height="32" fill="#c1c3c4" rx="5.28" ry="5.28"/>		<path d="M 68 156 C 65.8792 164.6348 52.875 169 45 159.813 C 45.085 159.8944 45.1721 159.9734 45.2612 160.0498 C 47.8013 162.228 52.75 161.75 54.125 159.3125 C 52.5012 159.5515 51.8379 158.192 53.8329 157.3276 C 52.0386 157.5249 51.041 156.5662 50.6321 155.7517 C 51.0527 155.3096 51.5164 155.104 52.4141 155.0446 C 50.4498 154.5781 49.7246 153.6133 49.5022 152.4423 C 50.0476 152.311 50.7295 152.199 51.1025 152.2491 C 49.3815 151.3455 48.9675 150.0223 49.0625 149 C 52.1367 150.147 53.9111 151.032 55.5491 151.9147 C 56.1328 152.2274 56.7839 152.7908 57.5183 153.5056 C 58.4534 151.022 59.4591 148.3948 61.4375 147.125 C 61.405 147.4133 61.401 147.7473 61.1979 147.9673 C 61.7599 147.4548 62.3214 147.0396 63.0625 146.9375 C 62.9775 147.4968 62.3436 147.8737 61.8599 148.0568 C 62.2262 147.9421 63.8511 147.0651 64.0625 147.5625 C 64.314 148.1277 63.0422 148.3927 62.7708 148.4905 C 62.5684 148.5582 62.3661 148.6335 62.1663 148.7146 C 64.6351 148.468 66.9907 150.0188 67.6785 152.5576 C 67.7275 152.7407 67.7058 153.0367 67.75 153.25 C 68.6526 153.5876 70.3589 153.1394 70.886 152.8142 C 70.5046 153.7196 69.5144 154.3867 68.054 154.5079 C 68.7576 154.8022 70.084 154.9636 71 154.8073 C 70.4204 155.4318 69.5887 156.0134 68 156 Z" fill="#ffffff"/>	</g>	<g id="facebook">		<rect id="path" x="0" y="140" width="32" height="32" fill="#c1c3c4" rx="5.28" ry="5.28"/>		<path id="path2" d="M 22 168 L 18 168 L 18 157 L 15 157 L 15 153 L 18 153 L 18 150.5229 C 18 147.2896 18.8555 145 22.7646 145 L 26 145 L 26 149 L 24 149 C 22.4779 149 22 149.9662 22 151 L 22 153 L 26 153 L 25.5 157 L 22 157 L 22 168 Z" fill="#ffffff"/>	</g>	<g id="chevron-large">		<path id="Path6" opacity="0.2" d="M 153 110.0313 L 147 119 L 149 119 L 157 110.0313 L 149 101 L 147 101 L 153 110.0313 Z" fill="#571067"/>	</g>	<g id="search">		<path d="M 86.8699 79.8867 C 86.8699 77.2537 84.7875 75.119 82.2186 75.119 C 79.6497 75.119 77.5673 77.2537 77.5673 79.8867 C 77.5673 82.52 79.6497 84.6545 82.2186 84.6545 C 84.7875 84.6545 86.8699 82.52 86.8699 79.8867 ZM 88.9371 79.8867 C 88.9371 81.6677 88.2773 83.2925 87.195 84.515 L 92.5 89.9507 L 90.9164 91.574 L 85.425 85.9451 C 84.4728 86.4752 83.3789 86.7736 82.2186 86.7736 C 78.5081 86.7736 75.5 83.6903 75.5 79.8867 C 75.5 76.0833 78.5081 73 82.2186 73 C 85.9292 73 88.9371 76.0833 88.9371 79.8867 Z" fill="#ffffff"/>	</g>	<g id="menu">		<path d="M 151.9688 56 L 143 50 L 143 52 L 151.9688 60 L 161 52 L 161 50 L 151.9688 56 Z" fill="#ffffff"/>	</g>	<g id="logo">		<path fill="#FFFFFF" d="M86.9,79.9c0-2.6-2.1-4.8-4.7-4.8s-4.7,2.1-4.7,4.8c0,2.6,2.1,4.8,4.7,4.8S86.9,82.5,86.9,79.9z M88.9,79.9		c0,1.8-0.7,3.4-1.7,4.6l5.3,5.4l-1.6,1.6l-5.5-5.6c-1,0.5-2,0.8-3.2,0.8c-3.7,0-6.7-3.1-6.7-6.9c0-3.8,3-6.9,6.7-6.9		C85.9,73,88.9,76.1,88.9,79.9z"/>	<polygon fill="#FFFFFF" points="152,56 143,50 143,52 152,60 161,52 161,50 	"/>	<path fill="#FFFFFF" d="M82.9,23.2L79,29.7c3.4,3.2,6.8,4.7,11.3,4.7c7.5,0,12.2-4.6,12.2-11.2c0-5.9-3.1-7.9-8.7-9.4		c-2.9-0.8-5.1-1.2-5.1-3.5c0-1.5,1.4-2.7,3.5-2.7c2,0,4.1,0.8,6.1,2.5l2.7-6.2C98.1,2,95,1,91.5,1c-6.7,0-11,4.4-11,10.3		c0,5,2.8,7.3,8.5,8.8c3.6,0.9,5.3,1.7,5.3,4.2c0,1.9-1.6,3.3-3.9,3.3C87.9,27.6,85.4,26.1,82.9,23.2 M78.4,3c-2.7-1.3-5.4-2-8.2-2		c-9.4,0-16.1,7.1-16.1,16.6c0,9.6,6.7,16.6,16.1,16.6c2.8,0,5.5-0.7,8.2-2v-9.4c-2.3,2.6-4.5,3.8-7.3,3.8c-5.1,0-8.3-3.9-8.3-8.8		c0-5.4,3.3-9.2,8.3-9.2c2.8,0,5,1.2,7.3,3.8V3z M37,21.6l3.2-10.5c0.1-0.5,0.5-1.9,1.1-4.3c0.6,2.4,0.9,3.8,1.1,4.3l3.2,10.5H37z		 M24.9,33.5h8.6l1.6-5.7h12.3l1.6,5.7h8.6l-11-31.7H35.9L24.9,33.5z M0,33.5h6.6h2.2c5.3,0,9.7-0.2,13.6-3c4-2.8,6.1-7.2,6.1-12.9		c0-5.7-2.1-10.1-6.1-12.9c-4.2-2.9-8.9-3-14.8-3h-1H0V33.5z M8.6,26.4V8.9H10c6.5,0,9.8,2.5,9.8,8.8c0,6.2-3.1,8.7-9.8,8.7H8.6z"/>	</g></svg>